# xmcd
#
# Track frame offsets: 
#        150
#        4767
#        7907
#        17920
#        23710
#        31980
#        38975
#        46920
#        49262
#        52240
#        56717
#        80410
#        105605
#        131095
#        153467
#        185985
#        199332
#        213980
#        219847
#        232357
#
# Disc length: 3922 seconds
#
# Revision: 2
# Processed by: cddbd v1.5.2PL0 Copyright (c) Steve Scherf et al.
# Submitted via: ExactAudioCopy v0.99pb5
#
DISCID=1e0f5014
DTITLE=Various Artist - Historische Orgel in Nederland, het  cd 12 - Eysden-B
DTITLE=reust, Schijndel, Utrecht, Zwolle
DYEAR=2000
DGENRE=Orgel
TTITLE0=Boëly - Messe des fêtes solennelles (Grand Choeur) · St-Martin
TTITLE0=uskerk, Eysden-Breust · Marcel Verheggen
TTITLE1=Boëly - Messe des fêtes solennelles (Kyrie) · St-Martinuskerk,
TTITLE1=Eysden-Breust · Marcel Verheggen
TTITLE2=Boëly - Messe des fêtes solennelles (Kyrie 2) · St-Martinusker
TTITLE2=k, Eysden-Breust · Marcel Verheggen
TTITLE3=Boëly - Messe des fêtes solennelles (Christe) · St-Martinusker
TTITLE3=k, Eysden-Breust · Marcel Verheggen
TTITLE4=Boëly - Messe des fêtes solennelles (Kyrie 3) · St-Martinusker
TTITLE4=k, Eysden-Breust · Marcel Verheggen
TTITLE5=Boëly - Messe des fêtes solennelles (Kyrie 4) · St-Martinusker
TTITLE5=k, Eysden-Breust · Marcel Verheggen
TTITLE6=Guilmant - Intr-var. sur un ancien Noël polonais, op.60 Nr.1 (
TTITLE6=Intro-Noël) · St-Martinuskerk, Eysden-Breust · Marcel Verheggc
TTITLE6=el cel Verheggen
TTITLE7=Guilmant - Intr. et var. sur un ancien Noël polonais, op.60 Nr
TTITLE7=1 (var.1) · St-Martinuskerk, Eysden-Breust · Marcel Verheggce
TTITLE7=l ccel Verheggen
TTITLE8=Guilmant - Intr. et var. sur un ancien Noël polonais, op.60 Nr
TTITLE8=1 (var.2) · St-Martinuskerk, Eysden-Breust · Marcel Verheggce
TTITLE8=l ccel Verheggen
TTITLE9=Guilmant - Intr. et var. sur un ancien Noël polonais, op.60 Nr
TTITLE9=1 (var.3) · St-Martinuskerk, Eysden-Breust · Marcel Verheggce
TTITLE9=l ccel Verheggen
TTITLE10=Dubois - Entrée du Cortège · St-Servatiuskerk, Schijndel · An
TTITLE10=ja Hendrikx
TTITLE11=Dubois - Bénédiction Nuptiale · St-Servatiuskerk, Schijndel ·
TTITLE11=Anja Hendrikx
TTITLE12=Dubois - Offertoire · St-Servatiuskerk, Schijndel · Anja Hend
TTITLE12=rikx
TTITLE13=Langlais - Mon âme cherche un fin paisible · St-Servatiuskerk
TTITLE13=, Schijndel · Anja Hendrikx
TTITLE14=Rheinberger - Sonate Nr.4 in a, op.98 - Deel 1: Tempo moderat
TTITLE14=o sopra il magnificat · St-Augustinuskerk, Utrecht · Wout van
TTITLE14=Andean Andel
TTITLE15=Brahms - Es ist ein Ros' entsprungen · St-Augustinuskerk, Utr
TTITLE15=echt · Wout van Andel
TTITLE16=Reger - Vom Himmel hoch, da komm' ich her · St-Augustinuskerk
TTITLE16=, Utrecht · Wout van Andel
TTITLE17=Reger - Lobe den Herren, den mächtigen König der Ehren · Onze
TTITLE17=Lieve-Vrouwekerk · Gerrie Meijers
TTITLE18=Chopin - Prélude op. 28 Nr. 4 (bew. Franz Liszt) · Onze-Lieve
TTITLE18=Vrouwekerk · Gerrie Meijers
TTITLE19=Liszt - Präludium und Fuge über B-A-C-H · Onze-Lieve-Vrouweke
TTITLE19=rk · Gerrie Meijers
EXTD=YEAR: 2000  ID3G:   0
EXTT0=
EXTT1=
EXTT2=
EXTT3=
EXTT4=
EXTT5=
EXTT6=
EXTT7=
EXTT8=
EXTT9=
EXTT10=
EXTT11=
EXTT12=
EXTT13=
EXTT14=
EXTT15=
EXTT16=
EXTT17=
EXTT18=
EXTT19=
PLAYORDER=
